<?xml version="1.0" encoding="utf-8"?>
<!-- Generator: Adobe Illustrator 23.1.1, SVG Export Plug-In . SVG Version: 6.00 Build 0)  -->
<svg version="1.1" id="Layer_1" xmlns="http://www.w3.org/2000/svg" xmlns:xlink="http://www.w3.org/1999/xlink" x="0px" y="0px"
	 viewBox="0 0 48 48" style="enable-background:new 0 0 48 48;" xml:space="preserve">
<style type="text/css">
	.st0{fill:#9287CA;}
</style>
<path class="st0" d="M24,0C10.7,0,0,10.7,0,24s10.7,24,24,24s24-10.7,24-24S37.3,0,24,0z M17,36.2h-5.4V19.9H17V36.2z M14.2,17.6
	L14.2,17.6c-1.9,0-3-1.3-3-2.8c0-1.6,1.2-2.8,3.1-2.8c1.9,0,3,1.2,3,2.8C17.3,16.4,16.1,17.6,14.2,17.6z M36.6,36.2h-5.4v-8.7
	c0-2.2-0.8-3.7-2.8-3.7c-1.5,0-2.4,1-2.8,2c-0.1,0.3-0.2,0.8-0.2,1.3v9.1H20c0,0,0.1-14.8,0-16.3h5.4v2.3c0.7-1.1,2-2.7,4.9-2.7
	c3.6,0,6.3,2.3,6.3,7.4L36.6,36.2z"/>
</svg>
