<?xml version="1.0" encoding="utf-8"?>
<!-- Generator: Adobe Illustrator 23.1.1, SVG Export Plug-In . SVG Version: 6.00 Build 0)  -->
<svg version="1.1" id="Layer_1" xmlns="http://www.w3.org/2000/svg" xmlns:xlink="http://www.w3.org/1999/xlink" x="0px" y="0px"
	 viewBox="0 0 48 48" style="enable-background:new 0 0 48 48;" xml:space="preserve">
<style type="text/css">
	.st0{fill:#9287CA;}
</style>
<path class="st0" d="M24,0C10.7,0,0,10.7,0,24s10.7,24,24,24s24-10.7,24-24S37.3,0,24,0z M35.2,21.9c-0.7,4.6-1.5,9.1-2.3,13.6
	c-0.3,1.5-2.2,2.3-3.4,1.3c-2.9-2-5.8-3.9-8.7-5.9c-0.9-1-0.1-2.3,0.8-3c2.4-2.4,4.9-4.4,7.2-6.9c0.6-1.5-1.2-0.2-1.8,0.1
	c-3.3,2.3-6.5,4.7-10,6.7c-1.8,1-3.8,0.1-5.6-0.4c-1.6-0.7-3.9-1.3-2.5-2.3l0,0c2.8-1.5,5.9-2.8,8.9-4.1c5-2.1,10.1-4.2,15.2-6.2
	c1-0.3,2.8-0.7,3,0.8C35.9,17.8,35.5,19.9,35.2,21.9z"/>
</svg>
