<?xml version="1.0" encoding="utf-8"?>
<!-- Generator: Adobe Illustrator 23.1.1, SVG Export Plug-In . SVG Version: 6.00 Build 0)  -->
<svg version="1.1" id="Layer_1" xmlns="http://www.w3.org/2000/svg" xmlns:xlink="http://www.w3.org/1999/xlink" x="0px" y="0px"
	 viewBox="0 0 48 48" style="enable-background:new 0 0 48 48;" xml:space="preserve">
<style type="text/css">
	.st0{fill:#9287CA;}
</style>
<path class="st0" d="M24,0C10.7,0,0,10.7,0,24s10.7,24,24,24s24-10.7,24-24S37.3,0,24,0z M35.2,17c-0.1,0.2-0.6,0.8-1.2,1.3
	c-0.9,0.9-1,1-1,1.8c0,1.2-0.6,3.7-1.1,5.1c-1.1,2.6-3.3,5.2-5.6,6.6c-3.2,1.9-7.4,2.4-11,1.3C14,32.6,12,31.7,12,31.5
	c0-0.1,0.6-0.1,1.4-0.1c1.6,0,3.2-0.5,4.5-1.3l0.9-0.5l-1-0.4c-1.5-0.5-2.8-1.7-3.1-2.8c-0.1-0.4-0.1-0.4,0.9-0.4l1,0l-0.8-0.4
	c-1-0.5-1.9-1.3-2.3-2.2c-0.3-0.6-0.7-2.2-0.6-2.3c0-0.1,0.4,0.1,0.8,0.2c1.2,0.4,1.3,0.3,0.6-0.4c-1.3-1.3-1.6-3.2-1-5l0.3-0.8
	l1.1,1.1c2.3,2.2,4.9,3.5,8,3.9l0.8,0.1l-0.1-0.8c-0.2-2.2,1.2-4.1,3.3-4.9c0.8-0.3,2.1-0.3,2.9-0.1c0.3,0.1,1,0.4,1.4,0.7l0.8,0.6
	l0.9-0.3c0.5-0.2,1.2-0.4,1.5-0.6c0.3-0.2,0.5-0.2,0.5-0.2c0,0.3-0.6,1.3-1.1,1.8c-0.7,0.8-0.5,0.8,0.9,0.3
	C35.3,16.7,35.3,16.7,35.2,17z"/>
</svg>
