<?xml version="1.0" encoding="utf-8"?>
<!-- Generator: Adobe Illustrator 23.1.1, SVG Export Plug-In . SVG Version: 6.00 Build 0)  -->
<svg version="1.1" id="Layer_1" xmlns="http://www.w3.org/2000/svg" xmlns:xlink="http://www.w3.org/1999/xlink" x="0px" y="0px"
	 viewBox="0 0 48 48" style="enable-background:new 0 0 48 48;" xml:space="preserve">
<style type="text/css">
	.st0{fill:#9287CA;}
</style>
<g>
	<path class="st0" d="M24,0C10.7,0,0,10.7,0,24s10.7,24,24,24s24-10.7,24-24S37.3,0,24,0z M36.3,30.7c-0.3,1.1-1.2,2-2.3,2.3
		c-2,0.5-10,0.5-10,0.5s-8,0-10-0.5c-1.1-0.3-2-1.2-2.3-2.3c-0.5-2-0.5-6.3-0.5-6.3s0-4.3,0.5-6.3c0.3-1.1,1.2-2,2.3-2.3
		c2-0.5,10-0.5,10-0.5s8,0,10,0.5c1.1,0.3,2,1.2,2.3,2.3c0.5,2,0.5,6.3,0.5,6.3S36.8,28.7,36.3,30.7z"/>
	<polygon class="st0" points="21.6,28.8 28,24.8 21.6,20.8 	"/>
</g>
</svg>
