<svg width="24" height="24" viewBox="0 0 34 34" fill="none" xmlns="http://www.w3.org/2000/svg">
<path d="M13.7335 15.5C12.7645 15.5 11.9995 16.35 11.9995 17.387C11.9995 18.424 12.7815 19.274 13.7335 19.274C14.7025 19.274 15.4675 18.424 15.4675 17.387C15.4845 16.35 14.7025 15.5 13.7335 15.5ZM19.9385 15.5C18.9695 15.5 18.2045 16.35 18.2045 17.387C18.2045 18.424 18.9865 19.274 19.9385 19.274C20.9075 19.274 21.6725 18.424 21.6725 17.387C21.6725 16.35 20.9075 15.5 19.9385 15.5Z" fill="#646464"/>
<path fill-rule="evenodd" clip-rule="evenodd" d="M17 34C26.3888 34 34 26.3888 34 17C34 7.61116 26.3888 0 17 0C7.61116 0 0 7.61116 0 17C0 26.3888 7.61116 34 17 34ZM22.3166 25.2804C22.3166 25.2804 21.6189 24.447 21.0375 23.7105C23.5764 22.9934 24.5454 21.4042 24.5454 21.4042C23.7508 21.9275 22.9949 22.2957 22.3166 22.5477C21.3475 22.9547 20.4173 23.226 19.5064 23.381C17.8465 23.6867 16.1442 23.6801 14.4867 23.3617C13.5136 23.1713 12.56 22.8923 11.6377 22.5283C11.1515 22.3413 10.6788 22.1212 10.2229 21.8693C10.1938 21.85 10.1648 21.8354 10.1357 21.8209L10.1357 21.8209C10.1066 21.8063 10.0775 21.7918 10.0485 21.7724C10.0097 21.753 9.99032 21.7337 9.97094 21.7143C9.62208 21.5205 9.42827 21.3848 9.42827 21.3848C9.42827 21.3848 10.3586 22.9353 12.8199 23.6718C12.2385 24.4082 11.5214 25.2804 11.5214 25.2804C7.23823 25.1447 5.61023 22.3345 5.61023 22.3345C5.61023 16.0938 8.40108 11.0354 8.40108 11.0354C11.1919 8.94225 13.8471 9.0004 13.8471 9.0004L14.0409 9.23297C10.5524 10.2408 8.94375 11.7719 8.94375 11.7719C8.94375 11.7719 9.37013 11.5393 10.0872 11.2098C12.161 10.2989 13.8084 10.047 14.4867 9.98882L14.5302 9.98148L14.5302 9.98147C14.6279 9.96483 14.7147 9.95006 14.8162 9.95006C18.177 9.49517 21.595 10.1339 24.5648 11.7719C24.5648 11.7719 23.0337 10.3183 19.7389 9.31049L20.0103 9.0004C20.0103 9.0004 22.6654 8.94225 25.4563 11.0354C25.4563 11.0354 28.2472 16.0938 28.2472 22.3345C28.2472 22.3345 26.5998 25.1447 22.3166 25.2804Z" fill="#646464"/>
</svg>
