<svg width="22" height="22" viewBox="0 0 22 22" fill="none" xmlns="http://www.w3.org/2000/svg">
<path fill-rule="evenodd" clip-rule="evenodd" d="M9.70745 2.80863C5.74195 3.42931 2.70825 6.86045 2.70825 11.0002C2.70825 15.5795 6.42056 19.2918 10.9999 19.2918C15.1396 19.2918 18.5708 16.2581 19.1914 12.2926C17.9698 13.5755 16.2453 14.3751 14.3332 14.3751C10.6283 14.3751 7.62494 11.3718 7.62494 7.66684C7.62494 5.75474 8.42462 4.03026 9.70745 2.80863ZM0.958252 11.0002C0.958252 5.4543 5.45406 0.958496 10.9999 0.958496C11.6959 0.958496 12.3763 1.02943 13.0338 1.16477C13.4322 1.24676 13.7215 1.59245 13.7321 1.99903C13.7427 2.40562 13.4717 2.76589 13.0782 2.8685C10.947 3.42414 9.37494 5.363 9.37494 7.66684C9.37494 10.4053 11.5948 12.6251 14.3332 12.6251C16.6371 12.6251 18.576 11.0531 19.1316 8.92194C19.2342 8.52837 19.5944 8.2574 20.001 8.26797C20.4076 8.27855 20.7533 8.56788 20.8353 8.96625C20.9706 9.6238 21.0416 10.3042 21.0416 11.0002C21.0416 16.546 16.5458 21.0418 10.9999 21.0418C5.45406 21.0418 0.958252 16.546 0.958252 11.0002Z" fill="white" fill-opacity="0.87"/>
</svg>
