<svg width="207" height="40" viewBox="0 0 207 40" fill="none" xmlns="http://www.w3.org/2000/svg">
<path fill-rule="evenodd" clip-rule="evenodd" d="M60.99 10.0649V20.0653H62.9953H65.0006V16.7657V13.466L68.7685 13.4656C72.7628 13.4652 73.2092 13.4389 74.3154 13.139C75.7959 12.7375 76.8602 11.8195 77.3714 10.5026C77.8265 9.3304 77.966 8.28874 77.921 6.39796C77.8853 4.89415 77.7933 4.23654 77.4942 3.34627C76.8793 1.51625 75.5288 0.566069 73.0217 0.199805C72.6288 0.142352 70.8336 0.11162 66.7309 0.0919516L60.99 0.0644531V10.0649ZM116.556 10.065V20.0653H118.561H120.566V16.5386V13.0117L123.458 13.0286L126.35 13.0454L127.789 15.4717C128.581 16.8061 129.514 18.3844 129.862 18.979L130.496 20.06L132.685 20.0627L134.875 20.0653L134.733 19.8227C134.655 19.6893 133.641 18.0255 132.479 16.1253C131.317 14.2252 130.381 12.653 130.398 12.6316C130.416 12.6102 130.571 12.5429 130.743 12.4822C131.378 12.2586 132.108 11.7432 132.554 11.2042C133.359 10.231 133.763 8.43664 133.676 6.21965C133.616 4.68005 133.41 3.65541 132.981 2.75822C132.293 1.31613 131.1 0.573638 128.911 0.225037C128.323 0.131352 127.449 0.113302 122.394 0.0907215L116.556 0.0645834V10.065ZM178.331 10.0693V20.0653H180.337H182.342V15.9251V11.7848L186.369 11.7681L190.395 11.7515L190.413 10.506L190.43 9.26052H186.386H182.342V5.9932V2.72587H186.962H191.582L191.618 2.54795C191.638 2.45012 191.728 1.91874 191.818 1.36718C191.908 0.815615 191.996 0.29886 192.014 0.218762L192.047 0.0731882H185.189H178.331V10.0693ZM202.783 10.0693V20.0653H204.788H206.793V10.0693V0.0731882H204.788H202.783V10.0693ZM92.8917 0.347514C92.8091 0.387821 92.6885 0.524533 92.6238 0.651344C92.5592 0.778155 91.7285 2.67249 90.7778 4.86095C89.2985 8.26654 88.8151 9.37679 88.0244 11.1853L87.9042 11.4603H89.8425C91.1148 11.4603 91.7807 11.4377 91.7807 11.3944C91.7807 11.3582 92.1565 10.4483 92.6158 9.37258C93.4606 7.39381 94.0926 5.85312 94.5198 4.73156C94.7955 4.00763 94.8883 3.86154 95.1646 3.71726C95.4338 3.5766 96.5117 3.48764 96.8571 3.57751C97.2935 3.69119 97.46 3.9452 98.0836 5.44862C99.2304 8.2133 100.806 11.9628 103.248 17.7362C103.692 18.7859 104.074 19.7065 104.097 19.7818C104.12 19.8572 104.198 19.9723 104.27 20.0377C104.392 20.1478 104.534 20.1552 106.225 20.1403L108.049 20.1244L108.038 19.9816C108.032 19.9031 106.749 16.8255 105.186 13.1425C103.624 9.45947 101.796 5.14259 101.123 3.54937C100.45 1.95614 99.8362 0.573186 99.7595 0.476137L99.6202 0.299637L96.3311 0.286891C93.9896 0.277898 92.9988 0.295301 92.8917 0.347514ZM153.119 0.352108C152.907 0.471414 152.836 0.593825 152.424 1.56128C151.921 2.74392 148.181 11.3506 148.144 11.4128C148.127 11.44 148.979 11.4546 150.037 11.4451L151.96 11.428L152.566 10.0046C153.534 7.7331 154.254 5.99313 154.6 5.09025C154.776 4.62927 154.982 4.15243 155.057 4.03066C155.265 3.69494 155.604 3.57531 156.406 3.55558C157.156 3.53714 157.386 3.60966 157.619 3.93801C157.689 4.03642 158.445 5.79101 159.3 7.83713C160.154 9.88326 161.624 13.377 162.565 15.6011C163.506 17.8251 164.295 19.7065 164.319 19.7818C164.343 19.8572 164.422 19.9732 164.496 20.0396C164.62 20.1526 164.747 20.159 166.451 20.1394C167.453 20.1278 168.285 20.1064 168.3 20.0917C168.337 20.0551 168.248 19.8408 166.09 14.76C165.04 12.2868 163.257 8.07976 162.129 5.4109C161.001 2.74204 160.022 0.500205 159.953 0.429036C159.831 0.303389 159.732 0.299183 156.546 0.28482C153.993 0.273239 153.233 0.288185 153.119 0.352108ZM72.7224 2.87656C73.2153 3.02006 73.4612 3.20063 73.61 3.52821C73.7219 3.77471 73.7305 4.00899 73.7318 6.84626C73.7327 8.85505 73.7096 9.96141 73.6642 10.0812C73.5715 10.3259 73.3626 10.5415 73.0756 10.6888C72.5951 10.9353 72.0379 10.9695 68.4613 10.9723L65.0329 10.9751L65.0163 6.84619L64.9996 2.71726L68.6711 2.74159C71.8955 2.76301 72.3887 2.77944 72.7224 2.87656ZM127.942 2.794C128.656 2.8827 129.1 3.0845 129.305 3.41304L129.461 3.66401V6.60784C129.461 9.43851 129.456 9.56041 129.331 9.77812C129.16 10.0743 128.631 10.3384 128.038 10.4229C127.783 10.4591 126.051 10.4878 124.075 10.4885L120.566 10.4898V6.60784V2.72587H123.98C125.98 2.72587 127.621 2.75408 127.942 2.794ZM85.3747 17.1053C84.8301 18.3597 84.317 19.5388 84.2346 19.7257L84.0847 20.0653H85.997H87.9093L88.0434 19.9148C88.1388 19.8076 90.2131 14.9872 90.2268 14.8409C90.2276 14.8319 89.359 14.8247 88.2966 14.8247H86.365L85.3747 17.1053ZM146.551 14.9056C146.533 14.9501 146.062 16.0346 145.504 17.3156C144.946 18.5967 144.449 19.7394 144.401 19.8551L144.313 20.0653H146.211C148.103 20.0653 148.11 20.0649 148.251 19.9176C148.363 19.8012 149.551 17.0617 150.326 15.132L150.449 14.8247H148.517C147.031 14.8247 146.576 14.8434 146.551 14.9056ZM74.1537 31.517C73.0426 31.683 72.5238 32.0915 72.2274 33.0337C72.0907 33.4682 72.0837 33.5978 72.0837 35.6903C72.0837 37.7937 72.0901 37.9105 72.2298 38.3549C72.5187 39.2739 73.107 39.731 74.1834 39.8725C74.9905 39.9786 77.0358 39.9103 77.4527 39.7633C78.2115 39.4957 78.5803 39.0395 78.7262 38.1881C78.8176 37.6556 78.7709 37.514 78.4934 37.481C78.2674 37.4541 78.1319 37.5696 78.1319 37.7892C78.1319 38.0789 77.9448 38.6159 77.7726 38.8206C77.468 39.1826 77.1137 39.2492 75.5121 39.2452C73.9481 39.2413 73.6284 39.1835 73.2583 38.838C72.791 38.4018 72.695 37.8479 72.7018 35.6256C72.7092 33.1988 72.8327 32.7175 73.5392 32.3607C73.894 32.1814 74.1825 32.1533 75.5966 32.16C77.0789 32.1669 77.3984 32.2205 77.7092 32.5137C77.9263 32.7186 78.1319 33.2402 78.1319 33.5864C78.1319 33.8027 78.2414 33.911 78.4604 33.911C78.7269 33.911 78.8028 33.7695 78.7548 33.3614C78.6259 32.2648 78.0474 31.6813 76.9282 31.5195C76.4204 31.4461 74.6389 31.4444 74.1537 31.517ZM96.5738 31.5657C96.4935 31.6318 96.1442 32.3788 95.7341 33.3611C93.6662 38.3142 93.2032 39.4581 93.2035 39.613C93.204 39.845 93.5447 40.003 93.7032 39.8446C93.7596 39.7882 94.0029 39.2671 94.2439 38.6866L94.6819 37.6313L96.7924 37.6142L98.9028 37.5972L99.1142 38.0671C99.2304 38.3256 99.4399 38.8234 99.5799 39.1733C99.7232 39.5318 99.8871 39.8382 99.9555 39.8754C100.095 39.9514 100.353 39.843 100.415 39.6824C100.472 39.5337 97.2352 31.7762 97.0418 31.598C96.8516 31.4228 96.7553 31.4162 96.5738 31.5657ZM115.226 31.5443C115.104 31.6335 115.1 31.7518 115.1 35.6903C115.1 39.6287 115.104 39.747 115.226 39.8362C115.396 39.9608 115.497 39.9519 115.65 39.7987C115.773 39.6761 115.779 39.5831 115.779 38.0195V36.3696H117.385C119.14 36.3696 119.471 36.3205 119.928 35.9917C120.476 35.5979 120.69 35.0296 120.693 33.9664C120.697 32.7443 120.436 32.1367 119.746 31.7613C119.284 31.5096 118.779 31.4535 116.972 31.453C115.674 31.4526 115.326 31.4707 115.226 31.5443ZM135.602 31.5443C135.48 31.6336 135.476 31.7518 135.476 35.6903C135.476 39.6288 135.48 39.7471 135.602 39.8363C135.764 39.9548 135.864 39.9522 135.989 39.8265C136.08 39.7362 136.091 39.2722 136.091 35.6957C136.091 31.8746 136.085 31.6611 135.973 31.5595C135.828 31.4286 135.764 31.426 135.602 31.5443ZM151.085 31.5317C150.848 31.7144 150.942 32.0649 151.246 32.1261C151.36 32.1492 152.036 32.1649 152.748 32.161L154.041 32.1539L154.058 35.9343C154.075 39.659 154.077 39.7167 154.208 39.8355C154.33 39.9457 154.356 39.9477 154.515 39.8588L154.688 39.7614L154.705 35.9628C154.718 32.9913 154.739 32.1634 154.802 32.1607C154.846 32.1589 155.483 32.1566 156.217 32.1558C157.653 32.1541 157.827 32.118 157.825 31.8208C157.822 31.4719 157.959 31.4862 154.447 31.467C151.884 31.4529 151.17 31.4666 151.085 31.5317ZM173.072 31.5333C172.973 31.607 172.575 32.5348 170.382 37.8171C169.915 38.9405 169.674 39.6001 169.699 39.6811C169.755 39.8556 170.004 39.9612 170.157 39.8752C170.228 39.8357 170.465 39.3595 170.733 38.7197L171.188 37.6313H173.313H175.439L175.898 38.7244C176.151 39.3256 176.406 39.8476 176.465 39.8845C176.606 39.9729 176.908 39.7811 176.908 39.6037C176.908 39.3816 173.679 31.6874 173.535 31.5657C173.377 31.4322 173.223 31.4215 173.072 31.5333ZM191.831 31.5333C191.731 31.6077 191.722 31.9441 191.72 35.6898C191.718 39.4708 191.726 39.7713 191.829 39.8468C191.913 39.9084 192.485 39.9281 194.192 39.9281C196.357 39.9281 196.448 39.9231 196.573 39.7987C196.72 39.6519 196.73 39.584 196.635 39.4062C196.571 39.2865 196.478 39.2811 194.468 39.2811H192.368V35.4962C192.368 31.7975 192.365 31.7083 192.239 31.5819C192.089 31.4323 191.984 31.4198 191.831 31.5333ZM119.378 32.3074C119.653 32.4579 119.901 32.7652 119.981 33.0558C120.018 33.1881 120.048 33.5912 120.048 33.9514C120.049 34.6893 119.948 35.0679 119.677 35.3512C119.373 35.6683 119.028 35.7226 117.32 35.7226H115.779L115.779 33.9272L115.779 32.1318L117.477 32.1642C118.918 32.1916 119.206 32.2133 119.378 32.3074ZM97.7423 34.7632C98.2343 35.9437 98.6268 36.9194 98.6146 36.9317C98.6024 36.944 97.7768 36.9462 96.78 36.9368L94.9678 36.9196L95.8771 34.7377C96.3773 33.5376 96.8004 32.5695 96.8172 32.5863C96.834 32.6031 97.2503 33.5828 97.7423 34.7632ZM174.281 34.8492L175.143 36.9196L173.331 36.9368C172.335 36.9462 171.509 36.9436 171.497 36.9311C171.484 36.9185 171.855 35.9936 172.322 34.8759C172.788 33.758 173.199 32.7707 173.235 32.6818C173.314 32.4847 173.185 32.2173 174.281 34.8492Z" fill="white"/>
<path fill-rule="evenodd" clip-rule="evenodd" d="M17.7565 0.126638C17.5898 0.207816 17.3467 0.483145 17.2163 0.738537C17.086 0.993928 15.4112 4.80903 13.4945 9.21649C10.512 16.0752 9.53738 18.3112 7.94314 21.9535L7.70069 22.5073H11.6087C14.1739 22.5073 15.5166 22.4617 15.5166 22.3746C15.5166 22.3017 16.2742 20.4692 17.2001 18.3027C18.9034 14.3175 20.1777 11.2147 21.0389 8.95589C21.5947 7.49794 21.7819 7.20372 22.3389 6.91315C22.8818 6.62987 25.055 6.4507 25.7513 6.63169C26.6311 6.86063 26.9668 7.3722 28.2241 10.4C30.5362 15.9679 33.7135 23.5193 38.6362 35.1465C39.5313 37.2607 40.3018 39.1146 40.3484 39.2664C40.3951 39.4182 40.5522 39.65 40.6976 39.7816C40.9431 40.0034 41.2288 40.0184 44.6395 39.9884L48.3168 39.9562L48.2941 39.6688C48.2816 39.5107 45.6944 33.3125 42.5448 25.8951C39.3952 18.4777 35.708 9.78369 34.3511 6.57501C32.9942 3.36633 31.7576 0.581131 31.603 0.385679L31.3221 0.0302158L24.6908 0.00454756C19.97 -0.0135644 17.9723 0.0214843 17.7565 0.126638ZM2.60094 33.8761C1.50282 36.4024 0.468328 38.777 0.302175 39.1533L0 39.8374H3.85557H7.71113L7.98148 39.5342C8.17385 39.3184 12.3559 29.6103 12.3835 29.3155C12.3851 29.2976 10.6339 29.283 8.49194 29.283H4.59751L2.60094 33.8761Z" fill="white"/>
</svg>
