<svg width="218" height="30" viewBox="0 0 218 30" fill="none" xmlns="http://www.w3.org/2000/svg">
<g opacity="0.87">
<path fill-rule="evenodd" clip-rule="evenodd" d="M102.578 14.4703L96.4587 29.7857H100.743C104.91 29.7857 105.055 29.7095 106.042 26.9769L107.058 24.168H112.854H118.649L119.576 26.9769C120.487 29.7368 120.581 29.7857 124.941 29.7857C128.172 29.7857 129.268 29.5129 128.972 28.7826C128.749 28.2312 125.96 21.7308 122.774 14.3371L116.983 0.894812H113.13C111.011 0.894812 109.147 0.50318 108.987 0.0248744C108.827 -0.454233 105.944 6.04622 102.578 14.4703ZM41.932 0.691774L31.2985 0.941357V15.3635V29.7857H42.1326H52.9667V26.6077V23.4305L46.3458 23.197L39.725 22.9643V20.5567V18.1491L45.9446 17.9148L52.1642 17.6804V14.504V11.3276H45.7439H39.3237V7.5646V3.80236L40.9601 5.55828C42.3172 7.01567 43.4808 7.31502 47.7816 7.31502H52.9667V3.70365C52.9667 1.7174 52.8768 0.170936 52.766 0.267239C52.6553 0.363542 47.78 0.555345 41.932 0.691774ZM173.871 1.21422C167.585 3.55519 164.508 8.26521 164.531 15.5152C164.559 24.6175 170.444 29.7857 180.778 29.7857C184.132 29.7857 187.188 29.309 188.638 28.5587L191.01 27.3324L189.371 24.1199C187.803 21.0446 187.658 20.9604 185.978 22.1369C183.864 23.6175 179.301 23.7154 176.58 22.3391C173.876 20.9708 170.938 16.4076 170.938 13.5763C170.938 10.0404 172.992 6.79337 175.859 5.79342C177.268 5.30228 178.57 5.04949 178.753 5.23166C178.935 5.41383 178.344 5.79824 177.439 6.08555C175.266 6.77492 172.543 10.31 172.545 12.4391C172.545 13.7449 172.87 13.488 173.949 11.3276C175.881 7.46108 180.044 6.06308 184.775 7.69301C186.62 8.32861 188.188 8.77481 188.26 8.68412C188.331 8.59344 188.98 7.35594 189.703 5.93547L191.017 3.35134L188.471 2.0352C184.945 0.211861 177.662 -0.197423 173.871 1.21422ZM0 15.4478V30L7.99556 29.6156C17.9076 29.1381 22.6224 27.0957 25.1776 22.1722C27.5892 17.5255 27.3284 11.4801 24.5348 7.25884C21.3295 2.4148 17.43 0.934138 7.82462 0.91247L0 0.894812V15.4478ZM60.1894 15.3403V29.7857H64.202H68.2147V24.168V18.5504H74.2336H80.2525V15.3403V12.1302H74.2336H68.2147V9.72259V7.31502H74.2336H80.2525V4.10491V0.894812H73.0298H65.8071L65.7758 3.50302L65.7445 6.11123L64.6105 3.50302C63.861 1.77839 62.9204 0.894812 61.833 0.894812C60.2376 0.894812 60.1894 1.31614 60.1894 15.3403ZM85.8702 6.46032C85.8702 9.52116 85.5179 12.952 85.0878 14.0843C84.579 15.4221 84.579 16.1428 85.0878 16.1428C85.5348 16.1428 85.8702 19.0672 85.8702 22.9643V29.7857H89.8828H93.8955V18.999C93.8955 12.6542 93.564 8.0076 93.0905 7.71467C92.5528 7.38243 92.5528 6.71874 93.0905 5.71397C93.5335 4.88737 93.8955 3.4645 93.8955 2.55283C93.8955 1.09865 93.4027 0.894812 89.8828 0.894812H85.8702V6.46032ZM131.454 13.1333C131.137 29.2537 131.155 29.3211 135.881 29.6292L139.639 29.874L139.766 22.8078C139.835 18.9211 139.873 15.2721 139.848 14.699C139.77 12.8396 140.956 14.0073 147.222 21.9611C153.153 29.4888 153.507 29.7857 156.545 29.7857H159.703V15.3403C159.703 1.32175 159.154 -1.62993 157.425 3.10176L156.619 5.3087L156.556 3.10176C156.501 1.20459 156.159 0.894812 154.114 0.894812H151.735L151.506 8.5477L151.276 16.2006L145.36 8.5477L139.444 0.894812H135.569H131.694L131.454 13.1333ZM195.816 15.3403V29.7857H206.65H217.484V26.5756V23.3655H210.663C203.959 23.3655 203.841 23.3318 203.841 21.3993C203.841 20.3175 203.209 19.0648 202.437 18.6146C201.412 18.0183 203.149 17.7904 208.857 17.7719L216.682 17.7478V14.5377V11.3276H210.262C203.948 11.3276 203.841 11.2939 203.841 9.32133C203.841 7.33829 203.922 7.31502 210.663 7.31502H217.484V4.10491V0.894812H206.65H195.816V15.3403ZM15.0209 10.0893C17.0135 12.4062 17.3297 12.2072 16.0056 9.46899C15.2079 7.8198 15.2552 7.82863 16.8081 9.61104C17.9276 10.8967 18.4581 12.6229 18.4581 14.9831C18.4581 19.6811 16.0208 22.5044 11.4344 23.12L8.02525 23.5766L8.02044 17.6532C8.01723 13.9527 7.563 10.8614 6.80943 9.41683L5.60403 7.10475L9.39597 7.5325C12.1767 7.84549 13.6774 8.52763 15.0209 10.0893ZM115.894 16.8314C116.256 17.4164 115.792 17.7519 114.608 17.7591C113.589 17.7647 111.963 17.9822 110.995 18.2414L109.236 18.7133L110.797 14.6052C111.655 12.3452 112.809 9.76994 113.359 8.88235C114.254 7.43941 114.411 7.72671 114.844 11.5917C115.11 13.9688 115.583 16.3266 115.894 16.8314Z" fill="white"/>
</g>
</svg>
