<svg width="179" height="45" viewBox="0 0 179 45" fill="none" xmlns="http://www.w3.org/2000/svg">
<g opacity="0.87">
<path fill-rule="evenodd" clip-rule="evenodd" d="M13.0793 0.50017C12.8424 1.53585 10.5138 12.5078 10.5138 12.5876C10.5138 12.6334 9.01333 12.671 7.17915 12.671C3.90477 12.671 3.84222 12.6801 3.72513 13.1711C3.65947 13.4463 3.41706 14.5467 3.18645 15.6164L2.76708 17.5615H6.08398C7.90837 17.5615 9.40087 17.6024 9.40087 17.6524C9.40087 17.9434 7.81132 25.2128 7.71293 25.3717C7.64749 25.4775 6.1167 25.5642 4.31123 25.5642H1.02861L0.650202 27.5093C0.442298 28.5793 0.2108 29.6794 0.136007 29.9546L0 30.4548H3.37989C6.49556 30.4548 6.75043 30.4852 6.64113 30.8438C6.40029 31.6347 3.83599 43.9478 3.83599 44.3142C3.83599 44.6576 4.14695 44.6878 7.10458 44.6323L10.3729 44.5707L11.7417 38.1205C12.4945 34.5731 13.1792 31.3969 13.2633 31.0625L13.416 30.4548H17.1959C19.275 30.4548 20.9758 30.499 20.9758 30.5528C20.9758 30.6068 20.3247 33.7023 19.529 37.4318C18.7332 41.1613 18.0821 44.3184 18.0821 44.4473C18.0821 44.7214 24.4481 44.7836 24.6166 44.5111C24.7054 44.3679 27.6537 30.8078 27.6537 30.5433C27.6537 30.4946 29.1495 30.4548 30.9777 30.4548C33.9485 30.4548 34.3144 30.4134 34.4235 30.0658C34.4905 29.8519 34.7349 28.7513 34.9662 27.6205L35.3869 25.5642H32.0666H28.7464L28.8913 24.7929C28.971 24.3685 29.3512 22.5928 29.7363 20.8471L30.4361 17.6727L33.7842 17.6115L37.1322 17.5504L37.5445 15.5128C37.7713 14.392 38.0044 13.2943 38.0623 13.0731C38.1604 12.6981 37.9389 12.671 34.7877 12.671C31.6715 12.671 31.4171 12.6405 31.5275 12.2819C31.6706 11.816 34.109 0.352118 34.109 0.144492C34.109 0.0651319 32.6064 0 30.77 0C28.9336 0 27.4309 0.0749143 27.4306 0.166723C27.43 0.390577 25.0024 11.7878 24.8499 12.2819C24.7419 12.6325 24.3564 12.671 20.9609 12.671C18.8879 12.671 17.1917 12.6316 17.1917 12.5836C17.1917 12.4891 19.559 1.32112 19.7531 0.50017L19.8713 0H16.5324C13.252 0 13.1914 0.00866962 13.0793 0.50017ZM98.7729 12.3853C93.4978 13.1138 90.3081 16.0119 89.171 21.1087C88.8652 22.4796 88.8407 23.0403 89.0359 24.1818C89.4693 26.7133 90.7998 28.2636 94.9725 31.1003C98.3088 33.3682 99.333 34.5608 99.3272 36.1718C99.3238 37.1124 98.3513 38.9983 97.5905 39.5392C96.1861 40.538 93.7289 40.5235 92.7148 39.511C92.2373 39.0339 92.1491 38.7463 92.1587 37.6926C92.1649 37.0041 92.2371 36.0442 92.319 35.5596L92.4681 34.6784H89.1401H85.8119L85.5036 36.0678C84.7487 39.4687 85.3742 42.3059 87.1643 43.601C88.6896 44.7045 90.1415 45.0173 93.6532 44.9993C97.0347 44.9817 98.7366 44.6574 100.725 43.6513C104.021 41.9834 106.278 38.034 106.298 33.9004C106.313 30.6546 105.267 29.2386 100.536 26.1042C98.7698 24.9345 97.0661 23.638 96.7491 23.223C95.34 21.3781 96.1022 18.5561 98.3219 17.399C98.6861 17.2092 99.5237 17.0462 100.183 17.0367C101.238 17.0216 101.449 17.0963 101.93 17.6549C102.428 18.2331 102.471 18.4474 102.406 20.0384L102.334 21.7863L105.593 21.7856L108.851 21.7852L109.127 20.3207C110.151 14.9048 107.545 12.1724 101.444 12.2631C100.342 12.2795 99.1402 12.3344 98.7729 12.3853ZM41.9221 13.7269C41.2921 16.4431 35.4445 44.1276 35.4445 44.3928C35.4445 44.6349 36.0849 44.6816 38.7278 44.6323L42.0111 44.5707L43.1735 39.1244C43.8128 36.1289 44.4959 32.953 44.6911 32.0664L45.0464 30.4548H48.8154C51.0226 30.4548 52.5844 30.5415 52.5844 30.664C52.5844 30.7791 51.9333 33.9246 51.1375 37.6541C50.3417 41.3836 49.6906 44.4907 49.6906 44.5585C49.6906 44.6263 51.1807 44.6818 53.0017 44.6818H56.3128L56.4384 44.0705C56.5074 43.7344 58.0224 36.612 59.8051 28.2434C61.5877 19.8747 63.0464 12.9473 63.0464 12.8492C63.0464 12.7512 61.5634 12.671 59.7508 12.671H56.4553L55.1727 18.7286C54.4673 22.0604 53.84 24.9614 53.7786 25.1752C53.6782 25.526 53.2971 25.5642 49.8983 25.5642C47.8253 25.5642 46.1291 25.4991 46.1291 25.4197C46.1291 25.2655 48.512 14.0141 48.7232 13.1711L48.8486 12.671H45.5076H42.1667L41.9221 13.7269ZM73.2 13.3934C73.0273 13.7909 71.2853 17.367 69.3291 21.3406C67.3729 25.3141 64.1471 31.8664 62.1604 35.9011C60.174 39.9358 58.4075 43.5619 58.2347 43.9594L57.9206 44.6818H61.2747H64.6288L66.9269 39.958C68.1908 37.36 70.7067 32.2332 72.5178 28.5653L75.8106 21.8963L76.4559 33.0112C76.811 39.1244 77.1413 44.2512 77.1898 44.404C77.2557 44.6107 78.1717 44.6818 80.7663 44.6818H84.2541L84.1163 42.8479C84.0407 41.8391 83.6199 34.7618 83.1817 27.1203C82.7434 19.4788 82.344 13.1018 82.2942 12.9488C82.2258 12.7392 81.1378 12.671 77.859 12.671H73.5143L73.2 13.3934ZM113.933 13.06C113.868 13.2738 112.459 19.8512 110.802 27.6761C109.145 35.5009 107.689 42.3226 107.566 42.8352C107.094 44.807 106.915 44.7018 110.611 44.6323L113.878 44.5707L115.275 38.0129C116.043 34.4061 116.728 31.2302 116.797 30.955C116.921 30.4608 116.969 30.4548 120.703 30.4548C122.782 30.4548 124.483 30.5128 124.483 30.5837C124.483 30.6548 123.832 33.7441 123.036 37.4487C122.24 41.1535 121.589 44.2966 121.589 44.4333C121.589 44.729 127.95 44.7914 128.132 44.4973C128.223 44.3497 134.945 13.0264 134.945 12.7483C134.945 12.7059 133.442 12.671 131.606 12.671C129.769 12.671 128.267 12.7161 128.267 12.7714C128.267 12.8268 127.666 15.6909 126.931 19.1361C126.197 22.5812 125.596 25.4369 125.596 25.482C125.596 25.5273 123.893 25.5642 121.812 25.5642C119.467 25.5642 118.027 25.4806 118.027 25.3446C118.027 25.0776 120.436 13.6088 120.607 13.06C120.719 12.7014 120.468 12.671 117.39 12.671C114.403 12.671 114.038 12.7121 113.933 13.06ZM138.838 12.9488C138.783 13.1018 137.284 20.079 135.508 28.4541C133.731 36.8292 132.225 43.9065 132.16 44.1817L132.042 44.6818H140.935H149.827L150.082 43.4036C150.222 42.7005 150.429 41.7753 150.541 41.3474C150.982 39.6755 151.375 39.7913 145.269 39.7913H139.79L139.887 39.2911C139.941 39.0159 140.377 36.9154 140.857 34.6229L141.729 30.4548H146.68H151.631L151.745 29.9546C151.808 29.6794 152.049 28.5793 152.282 27.5093L152.704 25.5642H147.831C143.282 25.5642 142.958 25.5376 142.958 25.163C142.958 24.842 143.827 20.589 144.41 18.0617L144.525 17.5615H149.848C154.723 17.5615 155.181 17.5288 155.291 17.1725C155.521 16.4314 156.091 13.529 156.091 13.1011C156.091 12.6832 155.846 12.671 147.514 12.671C140.854 12.671 138.915 12.733 138.838 12.9488ZM158.872 12.9488C158.607 13.6909 152.164 44.3704 152.243 44.5151C152.381 44.7696 162.638 44.7136 164.769 44.4469C167.762 44.0721 169.657 43.1633 171.704 41.1202C174.239 38.59 175.449 35.8957 176.771 29.8361C179.371 17.9154 178.204 13.7996 171.969 12.8993C169.63 12.5616 158.996 12.6018 158.872 12.9488ZM23.647 17.8821C23.647 18.0586 23.2964 19.8149 22.8679 21.7852C22.4394 23.7554 22.0888 25.4117 22.0888 25.466C22.0888 25.52 20.386 25.5642 18.3047 25.5642C15.3404 25.5642 14.5206 25.5013 14.5206 25.2741C14.5206 25.1145 14.8222 23.5889 15.191 21.8841C15.5596 20.1791 15.9182 18.5089 15.9877 18.1728L16.1141 17.5615H19.8804C23.0132 17.5615 23.647 17.6155 23.647 17.8821ZM169.806 18.0632C171.526 18.9753 171.7 21.5651 170.452 27.6741C168.894 35.306 167.446 38.4673 165.106 39.3487C164.257 39.6686 159.875 39.9278 159.876 39.6581C159.876 39.483 164.118 19.4128 164.446 18.0368C164.569 17.5197 164.605 17.5133 166.842 17.6035C168.377 17.6656 169.338 17.8145 169.806 18.0632Z" fill="white"/>
</g>
</svg>
