<svg width="161" height="45" viewBox="0 0 161 45" fill="none" xmlns="http://www.w3.org/2000/svg">
<g opacity="0.87">
<path fill-rule="evenodd" clip-rule="evenodd" d="M16.5573 0.88455C12.4748 2.1831 9.46459 3.97158 6.68748 6.74868C-2.30151 15.7381 -2.21897 29.6622 6.87703 38.6328C9.88954 41.6037 14.3944 44.054 18.086 44.7297C22.285 45.4982 31.0169 44.5035 30.5682 43.3073C30.4971 43.1185 29.6587 42.6573 28.7052 42.2828C23.7731 40.3453 18.8793 35.7946 16.6972 31.117C14.8984 27.2603 14.3382 24.3571 14.5594 20.0369C14.7815 15.7071 15.5932 12.9996 17.7202 9.49865C19.318 6.8683 20.0877 6.49532 19.0459 8.85664C15.0142 17.9951 20.1714 29.1233 29.8314 32.1297C34.1501 33.4741 41.4202 32.6537 43.2312 30.6176C44.2198 29.5063 45.0277 25.9553 45.0277 22.7208C45.0277 17.5044 43.4544 12.9243 40.2172 8.71753C34.7291 1.58504 24.7457 -1.71982 16.5573 0.88455ZM58.0209 22.5079V28.7167L60.8687 28.5727C63.3821 28.4458 63.851 28.3002 64.8607 27.3326C66.1573 26.0906 66.9407 23.302 66.5578 21.29C65.9399 18.0409 64.3654 16.8089 60.4266 16.4924L58.0209 16.2994V22.5079ZM67.9569 17.1685C67.9569 17.8307 68.2118 17.9328 69.8676 17.9328H71.7784V23.2829C71.7784 28.3781 71.8147 28.633 72.5427 28.633C73.2707 28.633 73.307 28.3781 73.307 23.2829V17.9328H75.4089C77.2558 17.9328 77.5107 17.8403 77.5107 17.1685C77.5107 16.445 77.2558 16.4042 72.7338 16.4042C68.2118 16.4042 67.9569 16.445 67.9569 17.1685ZM81.1106 17.1249C79.5506 18.0761 78.6572 20.0667 78.6572 22.5908C78.6572 27.0085 81.3815 29.6759 84.8465 28.6506C86.3717 28.1993 87.8288 26.6718 87.8288 25.5242C87.8288 24.3495 86.5459 24.7102 85.9181 26.0619C85.4442 27.0819 85.0995 27.3158 83.9278 27.4132C81.9945 27.5737 81.0567 26.9764 80.5866 25.2846C79.6007 21.7337 80.5614 18.412 82.7534 17.794C84.1949 17.3871 85.7411 18.1819 86.2838 19.6089C86.7034 20.7125 87.8319 20.768 87.8204 19.6842C87.7921 17.0401 83.7673 15.5046 81.1106 17.1249ZM96.7716 17.1291C93.9073 18.8759 93.4904 25.0186 96.0619 27.5901C98.103 29.6316 102.084 29.0515 103.277 26.5392C104.047 24.9158 104.037 24.8115 103.105 24.8115C102.651 24.8115 102.195 25.1723 101.999 25.687C101.485 27.0391 100.624 27.547 99.0714 27.4159C97.2565 27.2623 96.295 26.0245 96.0057 23.4686C95.5712 19.6356 97.3559 17.1482 100.107 17.7524C100.951 17.9381 101.422 18.36 101.805 19.276C102.27 20.3904 102.769 20.6396 103.764 20.2551C103.805 20.2387 103.654 19.6937 103.427 19.0433C102.598 16.664 99.157 15.6746 96.7716 17.1291ZM109.363 17.0446C109.227 17.4279 108.871 18.3436 108.571 19.0792C107.777 21.0221 105.026 28.33 105.026 28.4939C105.026 28.5704 105.344 28.633 105.732 28.633C106.201 28.633 106.64 28.1198 107.039 27.1044L107.639 25.5758H110.284H112.93L113.388 27.1044C113.731 28.2501 114.045 28.633 114.64 28.633C115.583 28.633 115.679 29.0167 112.969 21.9477C111.553 18.2534 110.716 16.5608 110.264 16.4737C109.895 16.4026 109.502 16.6514 109.363 17.0446ZM117.255 22.4708C117.255 28.3781 117.286 28.633 118.019 28.633C118.698 28.633 118.783 28.3781 118.783 26.3401V24.0472L120.216 24.038C123.93 24.0143 126.044 22.7613 126.044 20.5834C126.044 17.7157 124.66 16.7076 120.407 16.4783L117.255 16.3082V22.4708ZM128.337 22.5186C128.337 28.3781 128.369 28.633 129.101 28.633C129.834 28.633 129.866 28.3781 129.866 22.5186C129.866 16.659 129.834 16.4042 129.101 16.4042C128.369 16.4042 128.337 16.659 128.337 22.5186ZM131.776 17.1685C131.776 17.8307 132.031 17.9328 133.687 17.9328H135.598V23.2829C135.598 28.3781 135.634 28.633 136.362 28.633C137.09 28.633 137.127 28.3781 137.127 23.2829V17.9328H139.037C140.693 17.9328 140.948 17.8307 140.948 17.1685C140.948 16.4466 140.693 16.4042 136.362 16.4042C132.031 16.4042 131.776 16.4466 131.776 17.1685ZM145.496 17.4272C144.23 20.6579 141.33 28.3548 141.33 28.4832C141.33 28.5658 141.667 28.633 142.079 28.633C142.622 28.633 142.954 28.2119 143.286 27.1044L143.744 25.5758H146.39H149.035L149.635 27.1044C150.045 28.1469 150.469 28.633 150.968 28.633C151.827 28.633 151.946 29.097 149.245 21.9477C147.099 16.2704 146.318 15.3288 145.496 17.4272ZM153.559 22.5186V28.633H157.19C160.162 28.633 160.82 28.5291 160.82 28.0598C160.82 27.6012 160.247 27.4866 157.954 27.4866H155.088V21.9454C155.088 16.659 155.053 16.4042 154.323 16.4042C153.591 16.4042 153.559 16.659 153.559 22.5186ZM63.9363 18.8453C65.7415 20.6506 65.6491 24.5031 63.7543 26.3974C62.9136 27.2386 62.311 27.4866 61.1076 27.4866H59.5495V22.7097V17.9328H61.2864C62.6083 17.9328 63.2419 18.151 63.9363 18.8453ZM123.817 18.5652C124.201 18.913 124.515 19.6601 124.515 20.2257C124.515 21.7872 123.35 22.5931 121 22.6558L118.974 22.7097L118.86 20.3212L118.747 17.9328H120.932C122.43 17.9328 123.338 18.1319 123.817 18.5652ZM111.32 21.4971C111.852 22.9092 112.287 24.1466 112.287 24.2471C112.287 24.5505 108.522 24.4511 108.348 24.1427C108.174 23.8359 110.021 18.5969 110.229 18.8056C110.298 18.874 110.789 20.085 111.32 21.4971ZM147.573 21.4337C148.1 22.8339 148.43 24.0808 148.306 24.2043C148.048 24.4634 144.387 24.5153 144.387 24.2601C144.387 23.8928 146.404 18.6757 146.506 18.7785C146.566 18.8388 147.047 20.0338 147.573 21.4337Z" fill="white"/>
</g>
</svg>
