<svg width="154" height="40" viewBox="0 0 232 60" fill="none" xmlns="http://www.w3.org/2000/svg">
<g clip-path="url(#clip0)">
<path d="M60 0H0V60H7.50177V7.50177H52.4982V52.5053H22.4982V45.0035H45.0035V15.0035H15.0035V60H60V0ZM37.5018 22.5053V37.5018H22.4982V22.5053H37.5018Z" fill="#3F6DE1"/>
<path d="M85.1264 40.0023H81.1311V19.9976H95.5254C99.1311 19.9976 101.525 22.399 101.525 25.9976C101.525 29.4403 99.1311 31.7992 95.5254 31.7992H85.1264V40.0023ZM85.1264 28.2006H95.5254C95.7918 28.217 96.0585 28.1769 96.3082 28.0828C96.5579 27.9888 96.7849 27.843 96.9742 27.655C97.1636 27.467 97.311 27.241 97.4068 26.992C97.5026 26.743 97.5447 26.4765 97.5302 26.2101V25.6079C97.5457 25.3409 97.5044 25.0737 97.4091 24.8238C97.3137 24.5739 97.1665 24.3471 96.977 24.1583C96.7876 23.9695 96.5602 23.8231 96.31 23.7286C96.0598 23.6342 95.7924 23.5938 95.5254 23.6103H85.1264V28.2006Z" fill="white"/>
<path d="M127.013 29.9999C126.942 32.7118 125.815 35.2889 123.872 37.182C121.929 39.0751 119.323 40.1345 116.61 40.1345C113.898 40.1345 111.292 39.0751 109.349 37.182C107.406 35.2889 106.279 32.7118 106.208 29.9999C106.279 27.2879 107.406 24.7109 109.349 22.8178C111.292 20.9247 113.898 19.8652 116.61 19.8652C119.323 19.8652 121.929 20.9247 123.872 22.8178C125.815 24.7109 126.942 27.2879 127.013 29.9999ZM122.812 29.9999C122.812 26.203 120.212 23.3978 116.607 23.3978C113.001 23.3978 110.408 26.2313 110.408 29.9999C110.408 33.7685 113.008 36.602 116.607 36.602C120.205 36.602 122.812 33.8039 122.812 29.9999Z" fill="white"/>
<path d="M141.57 30.9208L137.32 34.7603V40.0023H133.318V19.9976H137.32V29.6811L148.052 19.9976H153.719L144.411 28.3352L153.719 40.0023H148.838L141.57 30.9208Z" fill="white"/>
<path d="M167.688 30.9208L163.438 34.7603V40.0023H159.386V19.9976H163.388V29.6811L174.149 19.9976H179.816L170.529 28.3352L179.851 39.9739H174.97L167.688 30.9208Z" fill="white"/>
<path d="M189.847 23.6032V28.2006H201.45V31.7992H189.847V36.4037H205.431V40.0023H185.837V19.9976H205.431V23.6032H189.847Z" fill="white"/>
<path d="M211.098 19.9976H231.103V23.6032H223.14V40.0023H219.145V23.6032H211.098V19.9976Z" fill="white"/>
</g>
<defs>
<clipPath id="clip0">
<rect width="231.131" height="60" fill="white"/>
</clipPath>
</defs>
</svg>
