<svg width="24" height="24" viewBox="0 0 24 24" fill="none" xmlns="http://www.w3.org/2000/svg">
<path fill-rule="evenodd" clip-rule="evenodd" d="M13 1C13 0.447715 12.5523 0 12 0C11.4477 0 11 0.447715 11 1V3C11 3.55228 11.4477 4 12 4C12.5523 4 13 3.55228 13 3V1ZM20.4872 4.92732C20.8777 4.5368 20.8777 3.90363 20.4872 3.51311C20.0967 3.12258 19.4635 3.12258 19.073 3.51311L17.653 4.93311C17.2625 5.32363 17.2625 5.9568 17.653 6.34732C18.0435 6.73785 18.6767 6.73785 19.0672 6.34732L20.4872 4.92732ZM12 8C9.79086 8 8 9.79086 8 12C8 14.2091 9.79086 16 12 16C14.2091 16 16 14.2091 16 12C16 9.79086 14.2091 8 12 8ZM6 12C6 8.68629 8.68629 6 12 6C15.3137 6 18 8.68629 18 12C18 15.3137 15.3137 18 12 18C8.68629 18 6 15.3137 6 12ZM1 11C0.447715 11 0 11.4477 0 12C0 12.5523 0.447715 13 1 13H3C3.55228 13 4 12.5523 4 12C4 11.4477 3.55228 11 3 11H1ZM20 12C20 11.4477 20.4477 11 21 11H23C23.5523 11 24 11.4477 24 12C24 12.5523 23.5523 13 23 13H21C20.4477 13 20 12.5523 20 12ZM6.34708 19.067C6.7376 18.6764 6.7376 18.0433 6.34708 17.6528C5.95655 17.2622 5.32339 17.2622 4.93286 17.6528L3.51286 19.0728C3.12234 19.4633 3.12234 20.0964 3.51286 20.487C3.90339 20.8775 4.53655 20.8775 4.92708 20.487L6.34708 19.067ZM17.653 17.6528C18.0435 17.2622 18.6767 17.2622 19.0672 17.6528L20.4872 19.0728C20.8777 19.4633 20.8777 20.0964 20.4872 20.487C20.0967 20.8775 19.4635 20.8775 19.073 20.487L17.653 19.067C17.2625 18.6764 17.2625 18.0433 17.653 17.6528ZM12 20C12.5523 20 13 20.4477 13 21V23C13 23.5523 12.5523 24 12 24C11.4477 24 11 23.5523 11 23V21C11 20.4477 11.4477 20 12 20ZM3.51286 3.51311C3.90339 3.12258 4.53655 3.12258 4.92708 3.51311L6.34708 4.93311C6.7376 5.32363 6.7376 5.9568 6.34708 6.34732C5.95655 6.73785 5.32339 6.73785 4.93286 6.34732L3.51286 4.92732C3.12234 4.5368 3.12234 3.90363 3.51286 3.51311Z" fill="white" fill-opacity="0.38"/>
</svg>
