<svg width="28" height="28" viewBox="0 0 28 28" fill="none" xmlns="http://www.w3.org/2000/svg">
<path d="M14.875 4.8125C14.875 4.4644 14.7367 4.13056 14.4906 3.88442C14.2444 3.63828 13.9106 3.5 13.5625 3.5C13.2144 3.5 12.8806 3.63828 12.6344 3.88442C12.3883 4.13056 12.25 4.4644 12.25 4.8125V12.25H4.8125C4.4644 12.25 4.13056 12.3883 3.88442 12.6344C3.63828 12.8806 3.5 13.2144 3.5 13.5625C3.5 13.9106 3.63828 14.2444 3.88442 14.4906C4.13056 14.7367 4.4644 14.875 4.8125 14.875H12.25V22.3125C12.25 22.6606 12.3883 22.9944 12.6344 23.2406C12.8806 23.4867 13.2144 23.625 13.5625 23.625C13.9106 23.625 14.2444 23.4867 14.4906 23.2406C14.7367 22.9944 14.875 22.6606 14.875 22.3125V14.875H22.3125C22.6606 14.875 22.9944 14.7367 23.2406 14.4906C23.4867 14.2444 23.625 13.9106 23.625 13.5625C23.625 13.2144 23.4867 12.8806 23.2406 12.6344C22.9944 12.3883 22.6606 12.25 22.3125 12.25H14.875V4.8125Z" fill="#3F6DE1"/>
</svg>
