<svg width="155" height="40" viewBox="0 0 155 40" fill="none" xmlns="http://www.w3.org/2000/svg">
<g clip-path="url(#clip0)">
<g clip-path="url(#clip1)">
<path d="M40 0H0V40H5.00118V5.00118H34.9988V35.0035H14.9988V30.0024H30.0024V10.0024H10.0024V40H40V0ZM25.0012 15.0035V25.0012H14.9988V15.0035H25.0012Z" fill="white"/>
<path d="M56.7509 26.6685H54.0874V13.332H63.6836C66.0874 13.332 67.6836 14.933 67.6836 17.332C67.6836 19.6272 66.0874 21.1998 63.6836 21.1998H56.7509V26.6685ZM56.7509 18.8007H63.6836C63.8612 18.8117 64.039 18.7849 64.2055 18.7222C64.3719 18.6595 64.5233 18.5623 64.6495 18.437C64.7757 18.3116 64.874 18.161 64.9379 17.995C65.0017 17.829 65.0298 17.6513 65.0201 17.4737V17.0723C65.0305 16.8943 65.0029 16.7161 64.9394 16.5495C64.8758 16.3829 64.7776 16.2317 64.6513 16.1059C64.525 15.98 64.3735 15.8824 64.2067 15.8194C64.0399 15.7564 63.8616 15.7295 63.6836 15.7405H56.7509V18.8007Z" fill="white"/>
<path d="M84.6753 19.9996C84.6281 21.8076 83.8768 23.5256 82.5813 24.7877C81.2859 26.0498 79.5488 26.756 77.7402 26.756C75.9317 26.756 74.1946 26.0498 72.8992 24.7877C71.6037 23.5256 70.8524 21.8076 70.8052 19.9996C70.8524 18.1916 71.6037 16.4736 72.8992 15.2115C74.1946 13.9494 75.9317 13.2432 77.7402 13.2432C79.5488 13.2432 81.2859 13.9494 82.5813 15.2115C83.8768 16.4736 84.6281 18.1916 84.6753 19.9996ZM81.8748 19.9996C81.8748 17.4683 80.1417 15.5982 77.7379 15.5982C75.3341 15.5982 73.6057 17.4872 73.6057 19.9996C73.6057 22.512 75.3388 24.401 77.7379 24.401C80.1369 24.401 81.8748 22.5356 81.8748 19.9996Z" fill="white"/>
<path d="M94.3802 20.6142L91.5467 23.1738V26.6685H88.8784V13.332H91.5467V19.7878L98.7013 13.332H102.479L96.2739 18.8905L102.479 26.6685H99.2255L94.3802 20.6142Z" fill="white"/>
<path d="M111.792 20.6142L108.959 23.1738V26.6685H106.257V13.332H108.926V19.7878L116.099 13.332H119.877L113.686 18.8905L119.901 26.6496H116.647L111.792 20.6142Z" fill="white"/>
<path d="M126.564 15.7358V18.8007H134.3V21.1998H126.564V24.2695H136.954V26.6685H123.891V13.332H136.954V15.7358H126.564Z" fill="white"/>
<path d="M140.732 13.332H154.068V15.7358H148.76V26.6685H146.097V15.7358H140.732V13.332Z" fill="white"/>
</g>
</g>
<defs>
<clipPath id="clip0">
<rect width="154.087" height="40" fill="white"/>
</clipPath>
<clipPath id="clip1">
<rect width="154.087" height="40" fill="white"/>
</clipPath>
</defs>
</svg>
