<svg width="372" height="135" viewBox="0 0 372 135" fill="none" xmlns="http://www.w3.org/2000/svg">
<rect width="372" height="135" rx="8" fill="white"/>
<rect x="0.5" y="0.5" width="371" height="134" rx="7.5" stroke="#3F6DE1" stroke-opacity="0.15"/>
<path fill-rule="evenodd" clip-rule="evenodd" d="M54.3434 38.4141V53.9697H65.6566V38.4141L60 37L54.3434 38.4141ZM43.3131 53.9697V40.3939L32 42.9394V53.9697H43.3131ZM76.6869 53.9697V40.3939L88 42.9394V53.9697H76.6869ZM54.0606 59.6263H43.3131V70.3737H48.9697V76.0303H43.3131V98.0909H54.0606V59.6263ZM76.6869 59.6263H65.9394V98.0909H76.6869V76.0303H71.0303V70.3737H76.6869V59.6263Z" fill="#323232"/>
<g filter="url(#filter0_b_2803_5556)">
<path d="M106.114 76H112.42C116.545 76 118.25 73.9886 118.25 71.3636C118.25 68.6023 116.341 67.1023 114.739 67V66.8295C116.239 66.4205 117.568 65.4318 117.568 63.1818C117.568 60.625 115.864 58.5455 112.216 58.5455H106.114V76ZM108.227 74.125V68.0568H112.523C114.807 68.0568 116.239 69.5909 116.239 71.3636C116.239 72.8977 115.182 74.125 112.42 74.125H108.227ZM108.227 66.2159V60.4205H112.216C114.534 60.4205 115.557 61.6477 115.557 63.1818C115.557 65.0227 114.057 66.2159 112.148 66.2159H108.227ZM123.639 76L125.395 71.0568H132.451L134.207 76H136.423L130.014 58.5455H127.832L121.423 76H123.639ZM126.059 69.1818L128.855 61.3068H128.991L131.787 69.1818H126.059ZM149.887 62.9091H151.933C151.839 60.2756 149.41 58.3068 146.035 58.3068C142.694 58.3068 140.069 60.25 140.069 63.1818C140.069 65.5341 141.774 66.9318 144.501 67.7159L146.649 68.3295C148.489 68.8409 150.126 69.4886 150.126 71.2273C150.126 73.1364 148.285 74.3977 145.864 74.3977C143.785 74.3977 141.944 73.4773 141.774 71.5H139.592C139.796 74.3636 142.114 76.3068 145.864 76.3068C149.887 76.3068 152.171 74.0909 152.171 71.2614C152.171 67.9886 149.069 66.9318 147.262 66.4545L145.489 65.9773C144.194 65.6364 142.114 64.9545 142.114 63.0795C142.114 61.4091 143.649 60.1818 145.967 60.1818C148.08 60.1818 149.683 61.1875 149.887 62.9091ZM155.892 60.4205H161.381V76H163.494V60.4205H168.983V58.5455H155.892V60.4205ZM175.559 58.5455H173.445V76H175.559V58.5455ZM195.724 67.2727C195.724 61.75 192.485 58.3068 188.019 58.3068C183.553 58.3068 180.315 61.75 180.315 67.2727C180.315 72.7955 183.553 76.2386 188.019 76.2386C192.485 76.2386 195.724 72.7955 195.724 67.2727ZM193.678 67.2727C193.678 71.8068 191.19 74.2614 188.019 74.2614C184.849 74.2614 182.36 71.8068 182.36 67.2727C182.36 62.7386 184.849 60.2841 188.019 60.2841C191.19 60.2841 193.678 62.7386 193.678 67.2727ZM214.319 58.5455H212.239V72.2841H212.069L202.523 58.5455H200.478V76H202.591V62.2955H202.762L212.273 76H214.319V58.5455ZM226.743 60.4205H232.232V76H234.346V60.4205H239.834V58.5455H226.743V60.4205ZM244.296 76H246.41V69.1818H250.228C250.382 69.1818 250.527 69.1818 250.671 69.1733L254.353 76H256.808L252.862 68.7898C255.086 68.0312 256.126 66.2159 256.126 63.8977C256.126 60.8125 254.285 58.5455 250.194 58.5455H244.296V76ZM246.41 67.2727V60.4205H250.126C252.956 60.4205 254.046 61.8011 254.046 63.8977C254.046 65.9943 252.956 67.2727 250.16 67.2727H246.41ZM261.564 76L263.32 71.0568H270.376L272.132 76H274.348L267.939 58.5455H265.757L259.348 76H261.564ZM263.984 69.1818L266.78 61.3068H266.916L269.712 69.1818H263.984ZM283.653 76C288.971 76 291.971 72.6932 291.971 67.2386C291.971 61.8182 288.971 58.5455 283.892 58.5455H278.267V76H283.653ZM280.38 74.125V60.4205H283.755C287.846 60.4205 289.926 63.0114 289.926 67.2386C289.926 71.5 287.846 74.125 283.517 74.125H280.38ZM298.83 58.5455H296.717V76H298.83V58.5455ZM318.109 58.5455H316.03V72.2841H315.859L306.314 58.5455H304.268V76H306.382V62.2955H306.552L316.064 76H318.109V58.5455ZM335.47 64H337.652C337.005 60.625 334.175 58.3068 330.493 58.3068C326.019 58.3068 322.857 61.75 322.857 67.2727C322.857 72.7955 325.993 76.2386 330.63 76.2386C334.789 76.2386 337.755 73.4688 337.755 69.1477V67.2727H331.107V69.1477H335.709C335.649 72.2841 333.587 74.2614 330.63 74.2614C327.391 74.2614 324.902 71.8068 324.902 67.2727C324.902 62.7386 327.391 60.2841 330.493 60.2841C333.016 60.2841 334.729 61.7074 335.47 64Z" fill="#323232"/>
</g>
<defs>
<filter id="filter0_b_2803_5556" x="102.114" y="54.3086" width="239.641" height="26" filterUnits="userSpaceOnUse" color-interpolation-filters="sRGB">
<feFlood flood-opacity="0" result="BackgroundImageFix"/>
<feGaussianBlur in="BackgroundImage" stdDeviation="2"/>
<feComposite in2="SourceAlpha" operator="in" result="effect1_backgroundBlur_2803_5556"/>
<feBlend mode="normal" in="SourceGraphic" in2="effect1_backgroundBlur_2803_5556" result="shape"/>
</filter>
</defs>
</svg>
