<svg viewBox="0 0 372 120" fill="none" xmlns="http://www.w3.org/2000/svg">
  <rect width="372" height="120" rx="8" fill="white" />
  <path fill-rule="evenodd" clip-rule="evenodd"
    d="M54.3434 30.4141V45.9697H65.6566V30.4141L60 29L54.3434 30.4141ZM43.3131 45.9697V32.3939L32 34.9394V45.9697H43.3131ZM76.6869 45.9697V32.3939L88 34.9394V45.9697H76.6869ZM54.0606 51.6263H43.3131V62.3737H48.9697V68.0303H43.3131V90.0909H54.0606V51.6263ZM76.6869 51.6263H65.9394V90.0909H76.6869V68.0303H71.0303V62.3737H76.6869V51.6263Z"
    fill="url(#paint0_linear_2894_5576)" />
  <g filter="url(#filter0_b_2894_5576)">
    <path
      d="M106.114 69H112.42C116.545 69 118.25 66.9886 118.25 64.3636C118.25 61.6023 116.341 60.1023 114.739 60V59.8295C116.239 59.4205 117.568 58.4318 117.568 56.1818C117.568 53.625 115.864 51.5455 112.216 51.5455H106.114V69ZM108.227 67.125V61.0568H112.523C114.807 61.0568 116.239 62.5909 116.239 64.3636C116.239 65.8977 115.182 67.125 112.42 67.125H108.227ZM108.227 59.2159V53.4205H112.216C114.534 53.4205 115.557 54.6477 115.557 56.1818C115.557 58.0227 114.057 59.2159 112.148 59.2159H108.227ZM123.639 69L125.395 64.0568H132.451L134.207 69H136.423L130.014 51.5455H127.832L121.423 69H123.639ZM126.059 62.1818L128.855 54.3068H128.991L131.787 62.1818H126.059ZM149.887 55.9091H151.933C151.839 53.2756 149.41 51.3068 146.035 51.3068C142.694 51.3068 140.069 53.25 140.069 56.1818C140.069 58.5341 141.774 59.9318 144.501 60.7159L146.649 61.3295C148.489 61.8409 150.126 62.4886 150.126 64.2273C150.126 66.1364 148.285 67.3977 145.864 67.3977C143.785 67.3977 141.944 66.4773 141.774 64.5H139.592C139.796 67.3636 142.114 69.3068 145.864 69.3068C149.887 69.3068 152.171 67.0909 152.171 64.2614C152.171 60.9886 149.069 59.9318 147.262 59.4545L145.489 58.9773C144.194 58.6364 142.114 57.9545 142.114 56.0795C142.114 54.4091 143.649 53.1818 145.967 53.1818C148.08 53.1818 149.683 54.1875 149.887 55.9091ZM155.892 53.4205H161.381V69H163.494V53.4205H168.983V51.5455H155.892V53.4205ZM175.559 51.5455H173.445V69H175.559V51.5455ZM195.724 60.2727C195.724 54.75 192.485 51.3068 188.019 51.3068C183.553 51.3068 180.315 54.75 180.315 60.2727C180.315 65.7955 183.553 69.2386 188.019 69.2386C192.485 69.2386 195.724 65.7955 195.724 60.2727ZM193.678 60.2727C193.678 64.8068 191.19 67.2614 188.019 67.2614C184.849 67.2614 182.36 64.8068 182.36 60.2727C182.36 55.7386 184.849 53.2841 188.019 53.2841C191.19 53.2841 193.678 55.7386 193.678 60.2727ZM214.319 51.5455H212.239V65.2841H212.069L202.523 51.5455H200.478V69H202.591V55.2955H202.762L212.273 69H214.319V51.5455ZM226.743 53.4205H232.232V69H234.346V53.4205H239.834V51.5455H226.743V53.4205ZM244.296 69H246.41V62.1818H250.228C250.382 62.1818 250.527 62.1818 250.671 62.1733L254.353 69H256.808L252.862 61.7898C255.086 61.0312 256.126 59.2159 256.126 56.8977C256.126 53.8125 254.285 51.5455 250.194 51.5455H244.296V69ZM246.41 60.2727V53.4205H250.126C252.956 53.4205 254.046 54.8011 254.046 56.8977C254.046 58.9943 252.956 60.2727 250.16 60.2727H246.41ZM261.564 69L263.32 64.0568H270.376L272.132 69H274.348L267.939 51.5455H265.757L259.348 69H261.564ZM263.984 62.1818L266.78 54.3068H266.916L269.712 62.1818H263.984ZM283.653 69C288.971 69 291.971 65.6932 291.971 60.2386C291.971 54.8182 288.971 51.5455 283.892 51.5455H278.267V69H283.653ZM280.38 67.125V53.4205H283.755C287.846 53.4205 289.926 56.0114 289.926 60.2386C289.926 64.5 287.846 67.125 283.517 67.125H280.38ZM298.83 51.5455H296.717V69H298.83V51.5455ZM318.109 51.5455H316.03V65.2841H315.859L306.314 51.5455H304.268V69H306.382V55.2955H306.552L316.064 69H318.109V51.5455ZM335.47 57H337.652C337.005 53.625 334.175 51.3068 330.493 51.3068C326.019 51.3068 322.857 54.75 322.857 60.2727C322.857 65.7955 325.993 69.2386 330.63 69.2386C334.789 69.2386 337.755 66.4688 337.755 62.1477V60.2727H331.107V62.1477H335.709C335.649 65.2841 333.587 67.2614 330.63 67.2614C327.391 67.2614 324.902 64.8068 324.902 60.2727C324.902 55.7386 327.391 53.2841 330.493 53.2841C333.016 53.2841 334.729 54.7074 335.47 57Z"
      fill="#323232" />
  </g>
  <defs>
    <filter id="filter0_b_2894_5576" x="102.114" y="47.3086" width="239.641" height="26" filterUnits="userSpaceOnUse"
      color-interpolation-filters="sRGB">
      <feFlood flood-opacity="0" result="BackgroundImageFix" />
      <feGaussianBlur in="BackgroundImage" stdDeviation="2" />
      <feComposite in2="SourceAlpha" operator="in" result="effect1_backgroundBlur_2894_5576" />
      <feBlend mode="normal" in="SourceGraphic" in2="effect1_backgroundBlur_2894_5576" result="shape" />
    </filter>
    <linearGradient id="paint0_linear_2894_5576" x1="32" y1="32.3939" x2="91.6768" y2="91.7879"
      gradientUnits="userSpaceOnUse">
      <stop stop-color="#F4CC98" />
      <stop offset="1" stop-color="#C47714" />
    </linearGradient>
  </defs>
</svg>