<svg width="24" height="24" viewBox="0 0 24 24" fill="none" xmlns="http://www.w3.org/2000/svg">
<path fill-rule="evenodd" clip-rule="evenodd" d="M12 24C18.6274 24 24 18.6274 24 12C24 5.37258 18.6274 0 12 0C5.37258 0 0 5.37258 0 12C0 18.6274 5.37258 24 12 24ZM8.37929 16.1324C10.799 16.1324 12.7596 14.1766 12.7596 11.7647C12.7588 11.1903 12.6449 10.6217 12.4243 10.0913C12.2038 9.56088 11.8809 9.07914 11.4741 8.67356C11.0674 8.26797 10.5847 7.94648 10.0537 7.72746C9.52267 7.50844 8.95371 7.39617 8.37929 7.39706C5.96059 7.39706 4 9.35182 4 11.7647C4.00076 12.339 4.11464 12.9076 4.33514 13.4379C4.55563 13.9682 4.87842 14.4499 5.28508 14.8555C5.69173 15.2611 6.17429 15.5826 6.7052 15.8017C7.2361 16.0208 7.80496 16.1331 8.37929 16.1324ZM15.3743 15.8761C16.5837 15.8761 17.564 14.0359 17.564 11.7647C17.564 9.4945 16.5837 7.65329 15.3743 7.65329C14.165 7.65329 13.1847 9.49353 13.1847 11.7647C13.1847 14.0349 14.165 15.8761 15.3743 15.8761ZM18.7588 15.4481C19.1849 15.4481 19.5294 13.7991 19.5294 11.7647C19.5294 9.73035 19.1849 8.08132 18.7597 8.08132C18.3336 8.08132 17.9891 9.73035 17.9891 11.7647C17.9891 13.7981 18.3336 15.4481 18.7588 15.4481Z" fill="#D8D8D8"/>
</svg>
