<svg width="34" height="34" viewBox="0 0 34 34" fill="none" xmlns="http://www.w3.org/2000/svg">
<circle cx="17" cy="17" r="17" fill="#D8D8D8"/>
<g clip-path="url(#clip0)">
<path d="M18.4094 17C18.4094 20.4169 15.6319 23.1875 12.204 23.1875C11.3904 23.1886 10.5845 23.0294 9.83236 22.719C9.08024 22.4087 8.39662 21.9532 7.82053 21.3786C7.24443 20.8041 6.78715 20.1217 6.47478 19.3704C6.16241 18.6191 6.00108 17.8136 6 17C6 13.5818 8.7775 10.8125 12.204 10.8125C13.0178 10.8112 13.8238 10.9703 14.5761 11.2806C15.3283 11.5909 16.0121 12.0463 16.5884 12.6209C17.1646 13.1955 17.622 13.8779 17.9345 14.6293C18.2469 15.3807 18.4083 16.1863 18.4094 17ZM25.2156 17C25.2156 20.2175 23.8269 22.8245 22.1136 22.8245C20.4004 22.8245 19.0116 20.2161 19.0116 17C19.0116 13.7825 20.4004 11.1755 22.1136 11.1755C23.8269 11.1755 25.2156 13.7839 25.2156 17ZM28 17C28 19.882 27.5119 22.2181 26.9083 22.2181C26.306 22.2181 25.8179 19.8806 25.8179 17C25.8179 14.118 26.306 11.7819 26.9096 11.7819C27.5119 11.7819 28 14.118 28 17Z" fill="white"/>
</g>
<defs>
<clipPath id="clip0">
<rect width="22" height="22" fill="white" transform="translate(6 6)"/>
</clipPath>
</defs>
</svg>
