<svg width="22" height="22" viewBox="0 0 22 22" fill="none" xmlns="http://www.w3.org/2000/svg">
<path fill-rule="evenodd" clip-rule="evenodd" d="M9.70769 2.80848C5.7422 3.42916 2.7085 6.8603 2.7085 11C2.7085 15.5794 6.4208 19.2917 11.0002 19.2917C15.1399 19.2917 18.571 16.258 19.1917 12.2925C17.9701 13.5753 16.2456 14.375 14.3335 14.375C10.6286 14.375 7.62518 11.3716 7.62518 7.66669C7.62518 5.75459 8.42486 4.03011 9.70769 2.80848ZM0.958496 11C0.958496 5.45415 5.4543 0.958344 11.0002 0.958344C11.6961 0.958344 12.3765 1.02928 13.034 1.16461C13.4324 1.24661 13.7218 1.59229 13.7324 1.99888C13.7429 2.40547 13.472 2.76574 13.0784 2.86835C10.9472 3.42399 9.37518 5.36284 9.37518 7.66669C9.37518 10.4051 11.5951 12.625 14.3335 12.625C16.6373 12.625 18.5762 11.053 19.1318 8.92179C19.2344 8.52822 19.5947 8.25724 20.0013 8.26782C20.4078 8.27839 20.7535 8.56773 20.8355 8.9661C20.9709 9.62365 21.0418 10.304 21.0418 11C21.0418 16.5459 16.546 21.0417 11.0002 21.0417C5.4543 21.0417 0.958496 16.5459 0.958496 11Z" fill="#3F6DE1" fill-opacity="0.38"/>
</svg>
