<svg width="207" height="40" viewBox="0 0 207 40" fill="none" xmlns="http://www.w3.org/2000/svg">
<path fill-rule="evenodd" clip-rule="evenodd" d="M60.99 10.0644V20.0649H62.9953H65.0006V16.7652V13.4655L68.7685 13.4651C72.7628 13.4647 73.2092 13.4385 74.3154 13.1385C75.7959 12.7371 76.8602 11.819 77.3714 10.5021C77.8265 9.32991 77.966 8.28825 77.921 6.39747C77.8853 4.89366 77.7933 4.23605 77.4942 3.34578C76.8793 1.51576 75.5288 0.565581 73.0217 0.199317C72.6288 0.141864 70.8336 0.111132 66.7309 0.0914633L60.99 0.0639648V10.0644ZM116.556 10.0645V20.0649H118.561H120.566V16.5381V13.0113L123.458 13.0281L126.35 13.045L127.789 15.4712C128.581 16.8056 129.514 18.3839 129.862 18.9785L130.496 20.0596L132.685 20.0622L134.875 20.0649L134.733 19.8222C134.655 19.6888 133.641 18.025 132.479 16.1249C131.317 14.2248 130.381 12.6526 130.398 12.6311C130.416 12.6097 130.571 12.5424 130.743 12.4817C131.378 12.2581 132.108 11.7427 132.554 11.2037C133.359 10.2305 133.763 8.43615 133.676 6.21916C133.616 4.67957 133.41 3.65492 132.981 2.75773C132.293 1.31564 131.1 0.57315 128.911 0.224549C128.323 0.130864 127.449 0.112813 122.394 0.0902332L116.556 0.0640952V10.0645ZM178.331 10.0688V20.0649H180.337H182.342V15.9246V11.7843L186.369 11.7677L190.395 11.751L190.413 10.5055L190.43 9.26004H186.386H182.342V5.99271V2.72538H186.962H191.582L191.618 2.54746C191.638 2.44963 191.728 1.91825 191.818 1.36669C191.908 0.815127 191.996 0.298372 192.014 0.218274L192.047 0.0726999H185.189H178.331V10.0688ZM202.783 10.0688V20.0649H204.788H206.793V10.0688V0.0726999H204.788H202.783V10.0688ZM92.8917 0.347025C92.8091 0.387333 92.6885 0.524044 92.6238 0.650855C92.5592 0.777666 91.7285 2.672 90.7778 4.86047C89.2985 8.26606 88.8151 9.3763 88.0244 11.1848L87.9042 11.4598H89.8425C91.1148 11.4598 91.7807 11.4372 91.7807 11.394C91.7807 11.3577 92.1565 10.4479 92.6158 9.3721C93.4606 7.39332 94.0926 5.85263 94.5198 4.73107C94.7955 4.00714 94.8883 3.86105 95.1646 3.71677C95.4338 3.57612 96.5117 3.48715 96.8571 3.57702C97.2935 3.6907 97.46 3.94471 98.0836 5.44813C99.2304 8.21281 100.806 11.9623 103.248 17.7357C103.692 18.7854 104.074 19.706 104.097 19.7813C104.12 19.8567 104.198 19.9718 104.27 20.0372C104.392 20.1473 104.534 20.1547 106.225 20.1398L108.049 20.1239L108.038 19.9811C108.032 19.9027 106.749 16.825 105.186 13.142C103.624 9.45899 101.796 5.1421 101.123 3.54888C100.45 1.95565 99.8362 0.572698 99.7595 0.475648L99.6202 0.299148L96.3311 0.286403C93.9896 0.27741 92.9988 0.294813 92.8917 0.347025ZM153.119 0.35162C152.907 0.470926 152.836 0.593337 152.424 1.56079C151.921 2.74343 148.181 11.3501 148.144 11.4123C148.127 11.4395 148.979 11.4541 150.037 11.4446L151.96 11.4275L152.566 10.0041C153.534 7.73261 154.254 5.99264 154.6 5.08976C154.776 4.62878 154.982 4.15194 155.057 4.03018C155.265 3.69445 155.604 3.57482 156.406 3.55509C157.156 3.53665 157.386 3.60918 157.619 3.93753C157.689 4.03593 158.445 5.79052 159.3 7.83665C160.154 9.88277 161.624 13.3765 162.565 15.6006C163.506 17.8246 164.295 19.706 164.319 19.7813C164.343 19.8567 164.422 19.9727 164.496 20.0391C164.62 20.1521 164.747 20.1585 166.451 20.1389C167.453 20.1273 168.285 20.1059 168.3 20.0913C168.337 20.0546 168.248 19.8404 166.09 14.7595C165.04 12.2864 163.257 8.07927 162.129 5.41041C161.001 2.74156 160.022 0.499717 159.953 0.428547C159.831 0.302901 159.732 0.298695 156.546 0.284332C153.993 0.272751 153.233 0.287697 153.119 0.35162ZM72.7224 2.87607C73.2153 3.01957 73.4612 3.20015 73.61 3.52772C73.7219 3.77423 73.7305 4.0085 73.7318 6.84577C73.7327 8.85456 73.7096 9.96093 73.6642 10.0807C73.5715 10.3254 73.3626 10.541 73.0756 10.6883C72.5951 10.9348 72.0379 10.969 68.4613 10.9719L65.0329 10.9746L65.0163 6.84571L64.9996 2.71678L68.6711 2.7411C71.8955 2.76252 72.3887 2.77895 72.7224 2.87607ZM127.942 2.79351C128.656 2.88221 129.1 3.08401 129.305 3.41256L129.461 3.66352V6.60735C129.461 9.43802 129.456 9.55992 129.331 9.77763C129.16 10.0738 128.631 10.3379 128.038 10.4224C127.783 10.4586 126.051 10.4873 124.075 10.488L120.566 10.4893V6.60735V2.72538H123.98C125.98 2.72538 127.621 2.75359 127.942 2.79351ZM85.3747 17.1049C84.8301 18.3593 84.317 19.5383 84.2346 19.7252L84.0847 20.0649H85.997H87.9093L88.0434 19.9143C88.1388 19.8072 90.2131 14.9867 90.2268 14.8404C90.2276 14.8314 89.359 14.8242 88.2966 14.8242H86.365L85.3747 17.1049ZM146.551 14.9051C146.533 14.9496 146.062 16.0341 145.504 17.3151C144.946 18.5962 144.449 19.7389 144.401 19.8546L144.313 20.0649H146.211C148.103 20.0649 148.11 20.0644 148.251 19.9171C148.363 19.8008 149.551 17.0612 150.326 15.1315L150.449 14.8242H148.517C147.031 14.8242 146.576 14.8429 146.551 14.9051ZM74.1537 31.5165C73.0426 31.6825 72.5238 32.091 72.2274 33.0332C72.0907 33.4678 72.0837 33.5973 72.0837 35.6898C72.0837 37.7932 72.0901 37.91 72.2298 38.3544C72.5187 39.2734 73.107 39.7305 74.1834 39.872C74.9905 39.9781 77.0358 39.9098 77.4527 39.7628C78.2115 39.4952 78.5803 39.039 78.7262 38.1877C78.8176 37.6551 78.7709 37.5135 78.4934 37.4806C78.2674 37.4536 78.1319 37.5691 78.1319 37.7887C78.1319 38.0784 77.9448 38.6154 77.7726 38.8201C77.468 39.1822 77.1137 39.2487 75.5121 39.2447C73.9481 39.2408 73.6284 39.183 73.2583 38.8376C72.791 38.4013 72.695 37.8474 72.7018 35.6251C72.7092 33.1983 72.8327 32.7171 73.5392 32.3602C73.894 32.181 74.1825 32.1528 75.5966 32.1595C77.0789 32.1665 77.3984 32.22 77.7092 32.5132C77.9263 32.7181 78.1319 33.2397 78.1319 33.5859C78.1319 33.8023 78.2414 33.9106 78.4604 33.9106C78.7269 33.9106 78.8028 33.769 78.7548 33.3609C78.6259 32.2643 78.0474 31.6808 76.9282 31.519C76.4204 31.4456 74.6389 31.444 74.1537 31.5165ZM96.5738 31.5652C96.4935 31.6313 96.1442 32.3783 95.7341 33.3606C93.6662 38.3138 93.2032 39.4576 93.2035 39.6125C93.204 39.8445 93.5447 40.0025 93.7032 39.8442C93.7596 39.7877 94.0029 39.2666 94.2439 38.6861L94.6819 37.6308L96.7924 37.6137L98.9028 37.5967L99.1142 38.0666C99.2304 38.3251 99.4399 38.8229 99.5799 39.1728C99.7232 39.5313 99.8871 39.8377 99.9555 39.8749C100.095 39.9509 100.353 39.8425 100.415 39.6819C100.472 39.5332 97.2352 31.7757 97.0418 31.5976C96.8516 31.4223 96.7553 31.4157 96.5738 31.5652ZM115.226 31.5438C115.104 31.633 115.1 31.7513 115.1 35.6898C115.1 39.6283 115.104 39.7465 115.226 39.8357C115.396 39.9603 115.497 39.9514 115.65 39.7982C115.773 39.6756 115.779 39.5826 115.779 38.019V36.3691H117.385C119.14 36.3691 119.471 36.32 119.928 35.9912C120.476 35.5974 120.69 35.0291 120.693 33.9659C120.697 32.7438 120.436 32.1362 119.746 31.7609C119.284 31.5091 118.779 31.453 116.972 31.4525C115.674 31.4521 115.326 31.4702 115.226 31.5438ZM135.602 31.5439C135.48 31.6331 135.476 31.7513 135.476 35.6898C135.476 39.6283 135.48 39.7466 135.602 39.8358C135.764 39.9543 135.864 39.9518 135.989 39.826C136.08 39.7357 136.091 39.2718 136.091 35.6952C136.091 31.8741 136.085 31.6606 135.973 31.5591C135.828 31.4281 135.764 31.4255 135.602 31.5439ZM151.085 31.5312C150.848 31.7139 150.942 32.0644 151.246 32.1256C151.36 32.1487 152.036 32.1644 152.748 32.1605L154.041 32.1534L154.058 35.9338C154.075 39.6585 154.077 39.7162 154.208 39.835C154.33 39.9452 154.356 39.9472 154.515 39.8583L154.688 39.761L154.705 35.9623C154.718 32.9908 154.739 32.1629 154.802 32.1602C154.846 32.1584 155.483 32.1561 156.217 32.1553C157.653 32.1536 157.827 32.1175 157.825 31.8203C157.822 31.4714 157.959 31.4858 154.447 31.4665C151.884 31.4524 151.17 31.4661 151.085 31.5312ZM173.072 31.5329C172.973 31.6065 172.575 32.5343 170.382 37.8166C169.915 38.94 169.674 39.5996 169.699 39.6807C169.755 39.8551 170.004 39.9607 170.157 39.8747C170.228 39.8352 170.465 39.359 170.733 38.7192L171.188 37.6308H173.313H175.439L175.898 38.7239C176.151 39.3251 176.406 39.8471 176.465 39.884C176.606 39.9724 176.908 39.7806 176.908 39.6032C176.908 39.3811 173.679 31.6869 173.535 31.5652C173.377 31.4317 173.223 31.421 173.072 31.5329ZM191.831 31.5329C191.731 31.6072 191.722 31.9436 191.72 35.6893C191.718 39.4703 191.726 39.7708 191.829 39.8463C191.913 39.9079 192.485 39.9276 194.192 39.9276C196.357 39.9276 196.448 39.9226 196.573 39.7982C196.72 39.6514 196.73 39.5835 196.635 39.4058C196.571 39.286 196.478 39.2806 194.468 39.2806H192.368V35.4957C192.368 31.797 192.365 31.7078 192.239 31.5814C192.089 31.4318 191.984 31.4193 191.831 31.5329ZM119.378 32.3069C119.653 32.4574 119.901 32.7647 119.981 33.0553C120.018 33.1876 120.048 33.5907 120.048 33.9509C120.049 34.6888 119.948 35.0674 119.677 35.3507C119.373 35.6678 119.028 35.7221 117.32 35.7221H115.779L115.779 33.9267L115.779 32.1313L117.477 32.1637C118.918 32.1911 119.206 32.2128 119.378 32.3069ZM97.7423 34.7627C98.2343 35.9432 98.6268 36.919 98.6146 36.9313C98.6024 36.9435 97.7768 36.9457 96.78 36.9363L94.9678 36.9191L95.8771 34.7372C96.3773 33.5371 96.8004 32.569 96.8172 32.5858C96.834 32.6027 97.2503 33.5823 97.7423 34.7627ZM174.281 34.8487L175.143 36.9191L173.331 36.9363C172.335 36.9457 171.509 36.9432 171.497 36.9306C171.484 36.918 171.855 35.9931 172.322 34.8754C172.788 33.7575 173.199 32.7702 173.235 32.6813C173.314 32.4843 173.185 32.2168 174.281 34.8487Z" fill="#323232"/>
<path fill-rule="evenodd" clip-rule="evenodd" d="M17.7565 0.126638C17.5898 0.207816 17.3467 0.483145 17.2163 0.738537C17.086 0.993928 15.4112 4.80903 13.4945 9.21649C10.512 16.0752 9.53738 18.3112 7.94314 21.9535L7.70069 22.5073H11.6087C14.1739 22.5073 15.5166 22.4617 15.5166 22.3746C15.5166 22.3017 16.2742 20.4692 17.2001 18.3027C18.9034 14.3175 20.1777 11.2147 21.0389 8.95589C21.5947 7.49794 21.7819 7.20372 22.3389 6.91315C22.8818 6.62987 25.055 6.4507 25.7513 6.63169C26.6311 6.86063 26.9668 7.3722 28.2241 10.4C30.5362 15.9679 33.7135 23.5193 38.6362 35.1465C39.5313 37.2607 40.3018 39.1146 40.3484 39.2664C40.3951 39.4182 40.5522 39.65 40.6976 39.7816C40.9431 40.0034 41.2288 40.0184 44.6395 39.9884L48.3168 39.9562L48.2941 39.6688C48.2816 39.5107 45.6944 33.3125 42.5448 25.8951C39.3952 18.4777 35.708 9.78369 34.3511 6.57501C32.9942 3.36633 31.7576 0.581131 31.603 0.385679L31.3221 0.0302158L24.6908 0.00454756C19.97 -0.0135644 17.9723 0.0214843 17.7565 0.126638ZM2.60094 33.8761C1.50282 36.4024 0.468328 38.777 0.302175 39.1533L0 39.8374H3.85557H7.71113L7.98148 39.5342C8.17385 39.3184 12.3559 29.6103 12.3835 29.3155C12.3851 29.2976 10.6339 29.283 8.49194 29.283H4.59751L2.60094 33.8761Z" fill="#323232"/>
</svg>
