<svg width="141" height="45" viewBox="0 0 141 45" fill="none" xmlns="http://www.w3.org/2000/svg">
<path fill-rule="evenodd" clip-rule="evenodd" d="M11.0248 6.29372L0.124826 12.5875L0.0624168 18.9516L0 25.3157H2.46268H4.92536L4.98872 30.2706L5.05207 35.2255L12.2083 39.3726C16.1442 41.6535 19.9485 43.8527 20.662 44.26L21.9595 45L30.3992 40.1293L38.8388 35.2584L38.9022 30.287L38.9655 25.3157H41.4282H43.8909L43.8285 18.9375L43.7661 12.5593L33.677 6.74703C28.128 3.55019 23.2136 0.724536 22.7563 0.467381L21.925 0L11.0248 6.29372ZM31.3307 11.0762L38.8388 15.4075L38.9022 20.3615L38.9655 25.3157H36.5033H34.0411L33.9764 28.8896L33.9116 32.4635L29.3363 35.1268C26.8199 36.5916 24.1224 38.1481 23.3417 38.5857L21.9225 39.3811L15.9509 35.909L9.9793 32.4367L9.91455 28.8762L9.84979 25.3157H7.39227H4.93475V20.4103V15.5048L13.4401 10.5804L21.9455 5.656L22.884 6.20058C23.4002 6.49997 27.2012 8.694 31.3307 11.0762ZM15.9037 14.8169L9.86199 18.3504V21.8331V25.3157H12.3167H14.7716L14.839 27.4513L14.9065 29.5867L18.4352 31.634L21.9638 33.6812L25.4741 31.6538L28.9844 29.6263L29.0519 27.471L29.1193 25.3157H31.5742H34.0289V21.8192V18.3228L28.4564 15.0933C25.3917 13.3169 22.6728 11.7332 22.4147 11.5734C21.999 11.3162 21.2578 11.6853 15.9037 14.8169ZM129.769 12.4326C127.142 12.9476 124.676 14.938 123.465 17.5217C122.842 18.8511 122.836 18.9173 122.765 24.8464C122.714 29.0986 122.778 31.1324 122.986 31.8769C124.026 35.608 127.252 38.18 131.178 38.4074C135.057 38.6319 138.283 36.6253 140.027 32.9027L140.668 31.5334V25.3108V19.0881L139.915 17.5567C137.954 13.5734 134.038 11.5959 129.769 12.4326ZM58.6651 14.728V16.8103L61.9495 21.1001L65.2338 25.3898L64.6876 26.1153C64.3871 26.5144 62.9091 28.4865 61.4032 30.4977L58.6651 34.1547V36.0702V37.9857H61.1287H63.5924V36.6798C63.5924 35.4151 63.6613 35.2736 65.7627 32.2333C66.9563 30.5059 68.014 29.1146 68.113 29.1413C68.2122 29.1681 69.2939 30.6146 70.5168 32.356C72.6395 35.3783 72.7404 35.5779 72.7418 36.7539L72.7429 37.9857H75.0892H77.4355V35.9942V34.0024L74.4332 29.9524C72.7821 27.7249 71.352 25.773 71.2554 25.6146C71.1458 25.4351 72.2741 23.7568 74.2577 21.1484L77.4355 16.9694V14.8075V12.6456H75.0892H72.7429V13.9736C72.7429 15.3857 72.7265 15.415 68.9598 20.807L68.0937 22.0466L65.8432 18.7657C63.6081 15.5077 63.5924 15.4748 63.5924 14.0652V12.6456H61.1287H58.6651V14.728ZM81.8935 25.3112V38.0141L88.0526 37.9414C95.0169 37.8588 95.4983 37.7548 97.3148 35.9383C98.8111 34.4421 99.3747 33.0385 99.3664 30.8295C99.3582 28.6366 98.8585 27.3809 97.3827 25.8448C96.5969 25.0271 96.5122 24.8445 96.8059 24.6008C96.9953 24.4436 97.4784 23.6273 97.8794 22.7871C98.5448 21.3927 98.5994 21.1031 98.5028 19.4746C98.3353 16.6496 97.0856 14.7507 94.5828 13.5178L93.0502 12.763L87.4719 12.6858L81.8935 12.6083V25.3112ZM101.368 14.9919V17.3382H104.77H108.172V27.662V37.9857H110.636H113.099V27.662V17.3382H116.619H120.138V14.9919V12.6456H110.753H101.368V14.9919ZM91.6307 16.8598C92.263 17.0044 92.825 17.3662 93.3533 17.9687C94.0723 18.789 94.129 18.9659 94.0378 20.097C93.9662 20.9814 93.7776 21.5046 93.3709 21.9457C92.4352 22.9602 91.5314 23.204 88.7053 23.204H86.1169V19.9192V16.6344L88.4045 16.64C89.6626 16.643 91.1145 16.7421 91.6307 16.8598ZM29.0519 23.1801L29.1193 25.3157H21.9455H14.7716L14.839 23.1775L14.9065 21.0393L18.426 19.0055L21.9455 16.9715L25.4649 19.0081L28.9844 21.0447L29.0519 23.1801ZM134.042 17.5607C134.72 17.9908 135.319 18.6177 135.625 19.2172C136.09 20.1289 136.113 20.4839 136.046 25.6606L135.976 31.139L135.257 32.0402C133.836 33.8201 131.65 34.2872 129.575 33.2539C128.703 32.8199 128.34 32.4459 127.826 31.448C127.178 30.1915 127.177 30.1807 127.182 25.3476C127.187 21.1313 127.244 20.3814 127.625 19.5426C128.797 16.9614 131.689 16.0684 134.042 17.5607ZM93.1511 27.8384C95.8848 29.2117 95.4911 33.0904 92.5486 33.7729C92.0436 33.89 90.39 33.9883 88.8738 33.9914L86.1169 33.997V30.7122V27.4274L89.2257 27.4278C91.7173 27.4281 92.4967 27.5095 93.1511 27.8384Z" fill="#323232"/>
</svg>
