<svg width="154" height="40" viewBox="0 0 232 60" fill="none" xmlns="http://www.w3.org/2000/svg">
<g clip-path="url(#clip0)">
<path d="M60 0H0V60H7.50177V7.50177H52.4982V52.5053H22.4982V45.0035H45.0035V15.0035H15.0035V60H60V0ZM37.5018 22.5053V37.5018H22.4982V22.5053H37.5018Z" fill="#3F6DE1"/>
<path d="M85.1264 40.0024H81.1311V19.9977H95.5254C99.1311 19.9977 101.525 22.3991 101.525 25.9977C101.525 29.4404 99.1311 31.7993 95.5254 31.7993H85.1264V40.0024ZM85.1264 28.2007H95.5254C95.7918 28.2171 96.0585 28.177 96.3082 28.0829C96.5579 27.9889 96.7849 27.8431 96.9742 27.6551C97.1636 27.4671 97.311 27.2411 97.4068 26.9921C97.5026 26.7431 97.5447 26.4766 97.5302 26.2102V25.608C97.5457 25.341 97.5044 25.0738 97.4091 24.8239C97.3137 24.574 97.1665 24.3472 96.977 24.1584C96.7876 23.9696 96.5602 23.8232 96.31 23.7287C96.0598 23.6342 95.7924 23.5939 95.5254 23.6104H85.1264V28.2007Z" fill="#191A3E"/>
<path d="M127.013 30C126.942 32.712 125.815 35.2891 123.872 37.1821C121.929 39.0752 119.323 40.1347 116.61 40.1347C113.898 40.1347 111.292 39.0752 109.349 37.1821C107.406 35.2891 106.279 32.712 106.208 30C106.279 27.2881 107.406 24.711 109.349 22.8179C111.292 20.9248 113.898 19.8654 116.61 19.8654C119.323 19.8654 121.929 20.9248 123.872 22.8179C125.815 24.711 126.942 27.2881 127.013 30ZM122.812 30C122.812 26.2031 120.212 23.3979 116.607 23.3979C113.001 23.3979 110.408 26.2314 110.408 30C110.408 33.7686 113.008 36.6021 116.607 36.6021C120.205 36.6021 122.812 33.804 122.812 30Z" fill="#191A3E"/>
<path d="M141.57 30.9209L137.32 34.7603V40.0024H133.318V19.9977H137.32V29.6812L148.052 19.9977H153.719L144.411 28.3353L153.719 40.0024H148.838L141.57 30.9209Z" fill="#191A3E"/>
<path d="M167.688 30.9209L163.438 34.7603V40.0024H159.386V19.9977H163.388V29.6812L174.149 19.9977H179.816L170.529 28.3353L179.851 39.974H174.97L167.688 30.9209Z" fill="#191A3E"/>
<path d="M189.847 23.6033V28.2007H201.45V31.7993H189.847V36.4038H205.431V40.0024H185.837V19.9977H205.431V23.6033H189.847Z" fill="#191A3E"/>
<path d="M211.098 19.9977H231.103V23.6033H223.14V40.0024H219.145V23.6033H211.098V19.9977Z" fill="#191A3E"/>
</g>
<defs>
<clipPath id="clip0">
<rect width="231.131" height="60" fill="white"/>
</clipPath>
</defs>
</svg>
